<?xml version="1.0" encoding="iso-8859-1"?>
<!-- Generator: Adobe Illustrator 19.0.0, SVG Export Plug-In . SVG Version: 6.00 Build 0)  -->
<svg version="1.1" id="Layer_1" xmlns="http://www.w3.org/2000/svg" xmlns:xlink="http://www.w3.org/1999/xlink" x="0px" y="0px"
	 viewBox="0 0 512 512" style="enable-background:new 0 0 512 512;" xml:space="preserve">
<path style="fill:#00B4D7;" d="M33.129,9.035l68.427,68.427c-52.766,44.092-86.498,110.231-86.498,184.561
	c0,133.12,107.821,240.941,240.941,240.941s240.941-107.821,240.941-240.941c0-16.504-1.687-32.648-4.819-48.188h-80.715
	c4.698,15.179,7.228,31.443,7.228,48.188c0,89.871-72.764,162.635-162.635,162.635S93.365,351.895,93.365,262.024
	c0-52.646,25.178-99.147,63.849-128.904l68.668,68.668V9.035H33.129z"/>
<g>
	<path style="fill:#0093C4;" d="M292.141,424.659c-6.115,0-12.131-0.401-18.071-1.058c81.345-8.99,144.565-77.823,144.565-161.578
		c0-16.745-2.53-33.009-7.228-48.188h36.141c4.698,15.179,7.228,31.443,7.228,48.188
		C454.776,351.895,382.012,424.659,292.141,424.659z"/>
	<path style="fill:#0093C4;" d="M101.557,77.463L33.129,9.035h36.141l68.427,68.427C84.932,121.555,51.2,187.693,51.2,262.024
		c0,127.019,98.231,230.765,222.871,240.029c-5.986,0.445-11.97,0.912-18.071,0.912c-133.12,0-240.941-107.821-240.941-240.941
		C15.059,187.693,48.791,121.555,101.557,77.463z"/>
</g>
<path d="M256,512c-66.796,0-129.578-25.995-176.78-73.197S6.024,328.82,6.024,262.024c0-70.756,29.872-137.638,82.293-185.022
	L11.317,0h223.601v223.601l-78.343-78.343C122.045,174.65,102.4,216.774,102.4,262.024c0,84.696,68.904,153.6,153.6,153.6
	s153.6-68.904,153.6-153.6c0-15.572-2.296-30.886-6.825-45.516l-3.623-11.707h100.366l1.461,7.25
	c3.314,16.45,4.996,33.264,4.996,49.974c0,66.796-25.995,129.578-73.197,176.78S322.796,512,256,512z M54.942,18.071l59.99,59.99
	l-7.581,6.336c-52.911,44.213-83.256,108.956-83.256,177.628c0,61.969,24.116,120.213,67.904,164.001S194.031,493.929,256,493.929
	s120.213-24.116,164.001-67.904s67.904-102.033,67.904-164.001c0-13.067-1.107-26.204-3.297-39.153h-61.401
	c2.965,12.749,4.465,25.872,4.465,39.153c0,94.66-77.011,171.671-171.671,171.671S84.329,356.683,84.329,262.024
	c0-53.524,24.557-103.117,67.374-136.064l6.289-4.839l58.855,58.856V18.071H54.942z"/>
<g>
	<rect x="180.706" y="33.129" style="fill:#FFFFFF;" width="18.071" height="54.212"/>
	<rect x="180.706" y="99.388" style="fill:#FFFFFF;" width="18.071" height="24.094"/>
</g>
<g>
</g>
<g>
</g>
<g>
</g>
<g>
</g>
<g>
</g>
<g>
</g>
<g>
</g>
<g>
</g>
<g>
</g>
<g>
</g>
<g>
</g>
<g>
</g>
<g>
</g>
<g>
</g>
<g>
</g>
</svg>
